<svg width="154" height="41" viewBox="0 0 154 41" fill="none" xmlns="http://www.w3.org/2000/svg">
<path d="M43.6987 4.28143H23.0609L22.0192 8.42363H28.6278C31.4902 8.89219 33.6297 10.0551 34.504 11.5878H23.0609L22.0192 15.73H34.2242C34.0763 15.9321 33.9065 16.1194 33.7124 16.2954C31.3635 18.423 26.4752 18.5208 22.0818 18.4471V18.4405V21.2906L36.2375 35.9123H42.0913L28.6326 22.38C31.1582 22.0945 34.3212 21.3281 36.486 19.3714C37.597 18.3676 38.3628 17.1438 38.7654 15.7299H42.657L43.6987 11.5877H38.9072C38.6488 10.432 38.1276 9.37191 37.3524 8.42359H42.657L43.6987 4.28143Z" fill="#84E14E"/>
<path d="M10.8205 33.3056C9.89746 33.3289 9.10236 33.1807 8.43612 32.8615C7.76931 32.5425 7.22554 32.098 6.8054 31.5282C6.38526 30.9588 6.08243 30.2862 5.89784 29.5114C5.71325 28.7368 5.65175 27.9046 5.71325 27.0159C5.79548 25.6032 6.07242 24.076 6.54396 22.4352C7.01545 20.7942 7.67177 19.2163 8.51297 17.7005C9.35384 16.1854 10.359 14.8178 11.5281 13.5983C12.6971 12.3796 14.0095 11.4617 15.4662 10.8464C16.1223 10.5729 16.83 10.4082 17.589 10.3509C18.3476 10.2943 19.0196 10.3849 19.6042 10.6243C20.1888 10.8634 20.6243 11.2684 20.9118 11.8378C21.1987 12.4076 21.2194 13.1829 20.9733 14.1626C20.7887 14.8462 20.4451 15.6041 19.9427 16.4356C19.4398 17.2677 18.7321 18.0995 17.8198 18.9313C16.9068 19.7635 15.7685 20.572 14.4047 21.3584C13.0404 22.1444 11.4252 22.834 9.55907 23.4263C9.37434 23.9965 9.1999 24.6632 9.036 25.4262C8.87157 26.1901 8.76383 26.9476 8.71287 27.6996C8.66152 28.4515 8.69751 29.1525 8.82061 29.8018C8.94365 30.4514 9.18974 30.9359 9.55907 31.2548C10.133 31.7562 11.0306 31.9159 12.2511 31.7334C13.4711 31.5512 14.8249 31.0838 16.3122 30.3318C17.799 29.5798 19.3374 28.5602 20.9271 27.2724C22.5165 25.985 23.9883 24.498 25.3421 22.8111C25.4651 22.6522 25.6137 22.572 25.7883 22.572C25.9622 22.572 26.1113 22.6289 26.2343 22.7428C26.3775 22.8795 26.4546 23.0395 26.4651 23.2213C26.4752 23.4042 26.4189 23.5749 26.2958 23.7342C25.1883 25.1477 23.9576 26.4295 22.6038 27.5799C21.2502 28.731 19.8812 29.7283 18.4965 30.5712C17.1121 31.4144 15.7532 32.0752 14.4201 32.5537C13.0866 33.0322 11.8867 33.2835 10.8205 33.3056ZM16.8198 12.4874C16.3069 12.8976 15.743 13.4101 15.1277 14.0258C14.5124 14.641 13.897 15.3535 13.2817 16.162C12.6664 16.9713 12.0765 17.8545 11.5126 18.8116C10.9483 19.7686 10.4612 20.783 10.0513 21.8539C11.2818 21.5121 12.4251 21.0454 13.4816 20.4523C14.5377 19.86 15.4815 19.1992 16.3122 18.4698C17.1429 17.7407 17.8452 16.9544 18.4196 16.1111C18.9937 15.2682 19.4142 14.4246 19.681 13.5813C19.8655 13.0118 19.8811 12.5899 19.7272 12.3164C19.5733 12.043 19.332 11.8778 19.0042 11.8209C18.6758 11.7643 18.3118 11.7983 17.912 11.9233C17.5121 12.0488 17.1477 12.2369 16.8198 12.4874Z" fill="#84E14E"/>
<path d="M57.7312 26.597V13.817H65.5072V15.329H59.2792V19.451H65.2912V20.927H59.2792V25.085H65.6512V26.597H57.7312ZM67.8761 26.597L71.3861 21.701L68.0561 17.057H69.8201L72.3221 20.657L74.7701 17.057H76.5701L73.2581 21.737L76.7321 26.597H74.9681L72.3221 22.745L69.6761 26.597H67.8761ZM79.1371 29.297V17.057H80.5411L80.5771 19.217L80.3611 19.109C80.6011 18.365 80.9971 17.801 81.5491 17.417C82.1131 17.033 82.7611 16.841 83.4931 16.841C84.4411 16.841 85.2151 17.075 85.8151 17.543C86.4271 18.011 86.8771 18.623 87.1651 19.379C87.4531 20.135 87.5971 20.951 87.5971 21.827C87.5971 22.703 87.4531 23.519 87.1651 24.275C86.8771 25.031 86.4271 25.643 85.8151 26.111C85.2151 26.579 84.4411 26.813 83.4931 26.813C83.0011 26.813 82.5391 26.729 82.1071 26.561C81.6871 26.393 81.3271 26.159 81.0271 25.859C80.7391 25.559 80.5411 25.205 80.4331 24.797L80.6491 24.545V29.297H79.1371ZM83.3491 25.373C84.1771 25.373 84.8251 25.061 85.2931 24.437C85.7731 23.813 86.0131 22.943 86.0131 21.827C86.0131 20.711 85.7731 19.841 85.2931 19.217C84.8251 18.593 84.1771 18.281 83.3491 18.281C82.7971 18.281 82.3171 18.413 81.9091 18.677C81.5131 18.941 81.2011 19.337 80.9731 19.865C80.7571 20.393 80.6491 21.047 80.6491 21.827C80.6491 22.607 80.7571 23.261 80.9731 23.789C81.1891 24.317 81.5011 24.713 81.9091 24.977C82.3171 25.241 82.7971 25.373 83.3491 25.373ZM94.0521 26.813C93.1521 26.813 92.3721 26.609 91.7121 26.201C91.0641 25.793 90.5601 25.217 90.2001 24.473C89.8521 23.717 89.6781 22.835 89.6781 21.827C89.6781 20.819 89.8521 19.943 90.2001 19.199C90.5601 18.455 91.0581 17.879 91.6941 17.471C92.3421 17.051 93.1041 16.841 93.9801 16.841C94.8081 16.841 95.5401 17.039 96.1761 17.435C96.8121 17.819 97.3101 18.383 97.6701 19.127C98.0301 19.871 98.2101 20.777 98.2101 21.845V22.295H91.2621C91.3221 23.315 91.5921 24.083 92.0721 24.599C92.5641 25.115 93.2241 25.373 94.0521 25.373C94.6761 25.373 95.1861 25.229 95.5821 24.941C95.9901 24.641 96.2721 24.251 96.4281 23.771L98.0481 23.897C97.7961 24.749 97.3161 25.451 96.6081 26.003C95.9121 26.543 95.0601 26.813 94.0521 26.813ZM91.2621 20.963H96.5541C96.4821 20.039 96.2121 19.361 95.7441 18.929C95.2761 18.497 94.6881 18.281 93.9801 18.281C93.2481 18.281 92.6421 18.509 92.1621 18.965C91.6941 19.409 91.3941 20.075 91.2621 20.963ZM100.795 26.597V17.057H102.181L102.235 19.487L102.055 19.325C102.175 18.761 102.391 18.299 102.703 17.939C103.027 17.567 103.411 17.291 103.855 17.111C104.299 16.931 104.767 16.841 105.259 16.841C105.991 16.841 106.597 17.003 107.077 17.327C107.569 17.651 107.941 18.089 108.193 18.641C108.445 19.181 108.571 19.787 108.571 20.459V26.597H107.059V20.891C107.059 20.003 106.885 19.331 106.537 18.875C106.189 18.407 105.655 18.173 104.935 18.173C104.443 18.173 103.999 18.281 103.603 18.497C103.207 18.701 102.889 19.007 102.649 19.415C102.421 19.811 102.307 20.303 102.307 20.891V26.597H100.795ZM115.656 26.813C114.828 26.813 114.114 26.669 113.514 26.381C112.914 26.093 112.44 25.709 112.092 25.229C111.756 24.737 111.564 24.191 111.516 23.591L113.1 23.483C113.196 24.071 113.454 24.533 113.874 24.869C114.306 25.205 114.9 25.373 115.656 25.373C116.364 25.373 116.91 25.271 117.294 25.067C117.69 24.863 117.888 24.545 117.888 24.113C117.888 23.837 117.822 23.609 117.69 23.429C117.558 23.249 117.312 23.099 116.952 22.979C116.592 22.847 116.064 22.721 115.368 22.601C114.444 22.433 113.718 22.229 113.19 21.989C112.674 21.737 112.308 21.425 112.092 21.053C111.876 20.681 111.768 20.237 111.768 19.721C111.768 19.169 111.906 18.677 112.182 18.245C112.458 17.813 112.866 17.471 113.406 17.219C113.946 16.967 114.606 16.841 115.386 16.841C116.178 16.841 116.838 16.985 117.366 17.273C117.906 17.549 118.332 17.921 118.644 18.389C118.956 18.845 119.16 19.349 119.256 19.901L117.672 20.009C117.6 19.673 117.462 19.379 117.258 19.127C117.066 18.863 116.808 18.659 116.484 18.515C116.172 18.359 115.8 18.281 115.368 18.281C114.672 18.281 114.156 18.419 113.82 18.695C113.484 18.971 113.316 19.313 113.316 19.721C113.316 20.045 113.394 20.303 113.55 20.495C113.706 20.687 113.958 20.843 114.306 20.963C114.654 21.071 115.116 21.173 115.692 21.269C116.676 21.425 117.438 21.629 117.978 21.881C118.518 22.121 118.896 22.421 119.112 22.781C119.328 23.141 119.436 23.585 119.436 24.113C119.436 24.677 119.268 25.163 118.932 25.571C118.608 25.967 118.158 26.273 117.582 26.489C117.018 26.705 116.376 26.813 115.656 26.813ZM123.353 29.297V27.965H124.451C124.787 27.965 125.033 27.911 125.189 27.803C125.357 27.707 125.483 27.545 125.567 27.317L125.909 26.417H125.387L121.841 17.057H123.497L126.395 25.013L129.113 17.057H130.769L126.899 27.803C126.719 28.319 126.449 28.697 126.089 28.937C125.729 29.177 125.231 29.297 124.595 29.297H123.353ZM133.174 26.597V17.057H134.56L134.614 19.487L134.434 19.325C134.554 18.761 134.77 18.299 135.082 17.939C135.406 17.567 135.79 17.291 136.234 17.111C136.678 16.931 137.146 16.841 137.638 16.841C138.37 16.841 138.976 17.003 139.456 17.327C139.948 17.651 140.32 18.089 140.572 18.641C140.824 19.181 140.95 19.787 140.95 20.459V26.597H139.438V20.891C139.438 20.003 139.264 19.331 138.916 18.875C138.568 18.407 138.034 18.173 137.314 18.173C136.822 18.173 136.378 18.281 135.982 18.497C135.586 18.701 135.268 19.007 135.028 19.415C134.8 19.811 134.686 20.303 134.686 20.891V26.597H133.174ZM148.107 26.813C147.219 26.813 146.445 26.609 145.785 26.201C145.125 25.793 144.615 25.217 144.255 24.473C143.895 23.717 143.715 22.835 143.715 21.827C143.715 20.819 143.895 19.943 144.255 19.199C144.615 18.455 145.125 17.879 145.785 17.471C146.445 17.051 147.219 16.841 148.107 16.841C148.815 16.841 149.445 16.973 149.997 17.237C150.549 17.489 151.005 17.861 151.365 18.353C151.725 18.845 151.971 19.445 152.103 20.153L150.519 20.261C150.375 19.625 150.087 19.139 149.655 18.803C149.235 18.455 148.719 18.281 148.107 18.281C147.231 18.281 146.541 18.599 146.037 19.235C145.545 19.859 145.299 20.723 145.299 21.827C145.299 22.931 145.545 23.801 146.037 24.437C146.541 25.061 147.231 25.373 148.107 25.373C148.719 25.373 149.247 25.193 149.691 24.833C150.147 24.473 150.447 23.933 150.591 23.213L152.175 23.321C152.043 24.029 151.791 24.647 151.419 25.175C151.047 25.691 150.579 26.093 150.015 26.381C149.451 26.669 148.815 26.813 148.107 26.813Z" fill="#84E14E"/>
</svg>
